<svg xmlns="http://www.w3.org/2000/svg" viewBox="0 0 32 32" fill="none">
  <!-- Graduation Cap -->
  <path d="M16 4L2 12L16 20L30 12L16 4Z" fill="url(#iconGrad1)"/>
  <path d="M16 20L30 12V18C30 18 24 23 16 23C8 23 2 18 2 18V12L16 20Z" fill="url(#iconGrad2)"/>

  <!-- Tassel -->
  <circle cx="26" cy="16" r="2" fill="#f59e0b"/>
  <path d="M26 18V24" stroke="#f59e0b" stroke-width="1.5" stroke-linecap="round"/>

  <!-- Star -->
  <path d="M16 2L16.8 4L19 4L17.2 5.2L18 7.5L16 6L14 7.5L14.8 5.2L13 4L15.2 4L16 2Z" fill="#f59e0b"/>

  <defs>
    <linearGradient id="iconGrad1" x1="2" y1="4" x2="30" y2="20" gradientUnits="userSpaceOnUse">
      <stop stop-color="#2563eb"/>
      <stop offset="1" stop-color="#1d4ed8"/>
    </linearGradient>
    <linearGradient id="iconGrad2" x1="2" y1="12" x2="30" y2="23" gradientUnits="userSpaceOnUse">
      <stop stop-color="#1d4ed8"/>
      <stop offset="1" stop-color="#1e40af"/>
    </linearGradient>
  </defs>
</svg>
